<svg width="81" height="81" viewBox="0 0 81 81" fill="none" xmlns="http://www.w3.org/2000/svg">
<path d="M40.249 80.3446C62.4779 80.3446 80.4981 62.3588 80.4981 40.1723C80.4981 17.9857 62.4779 0 40.249 0C18.0201 0 0 17.9857 0 40.1723C0 62.3588 18.0201 80.3446 40.249 80.3446Z" fill="#BED3E5"/>
<path d="M67.9894 51.9455L57.903 43.8918L55.2402 41.7978C55.9664 40.5898 56.2892 39.2207 56.2892 37.771C56.2892 33.2609 52.6581 29.6367 48.1394 29.6367C43.6207 29.6367 39.9896 33.2609 39.9896 37.771C39.9896 38.0126 39.9896 38.3347 40.0703 38.5764H33.4536C33.2922 38.5764 33.2115 38.6569 33.0501 38.7374L19.4941 51.4623C19.252 51.7039 19.252 52.0261 19.4941 52.2677C19.5747 52.3482 19.7361 52.4287 19.8975 52.4287C20.0589 52.4287 20.1396 52.3482 20.301 52.2677L20.543 52.0261V59.4355C20.543 59.7576 20.7851 59.9993 21.1079 59.9993H35.3095H44.1855H48.3007H57.4995H66.5369C66.8597 59.9993 67.1018 59.7576 67.1018 59.4355V52.5898L67.3438 52.7509C67.4245 52.8314 67.5859 52.912 67.6666 52.912C67.828 52.912 67.9894 52.8314 68.0701 52.6704C68.3121 52.5093 68.2314 52.1871 67.9894 51.9455ZM58.1451 48.8046L61.6148 51.5428H58.1451V48.8046ZM41.1193 37.8515C41.1193 33.9857 44.2662 30.8448 48.1394 30.8448C52.0126 30.8448 55.1595 33.9857 55.1595 37.8515C55.1595 38.979 54.8367 40.1871 54.3526 41.1535L51.2863 38.7374C51.2056 38.7374 51.2056 38.6569 51.1249 38.6569C51.0442 38.6569 51.0443 38.6569 50.9636 38.6569H41.1999C41.1193 38.3347 41.1193 38.0931 41.1193 37.8515ZM40.4737 50.8985L32.8888 44.9388H34.4219L42.491 50.8985H40.4737ZM35.7129 50.3348L35.3095 50.0126L29.419 44.9388H31.0329L38.6178 50.8985H36.2778L35.7129 50.3348ZM42.5717 39.7844L37.8109 43.8113H36.1971L40.9579 39.7844H42.5717ZM40.4737 47.9992L38.6178 46.6301V45.0193H40.4737V47.9992ZM37.4075 45.7442L36.2778 44.9388H37.4075V45.7442ZM39.5054 43.8113L44.1048 39.9455C44.1855 39.8649 44.1855 39.8649 44.2662 39.7844H45.638L40.8772 43.8113H39.5054ZM41.6034 48.8046V44.9388H43.7014V50.3348L41.6034 48.8046ZM44.0241 43.8113H42.491L47.0904 39.9455C47.1711 39.8649 47.1711 39.8649 47.2518 39.7844H49.2691L44.0241 43.8113ZM34.4219 43.8113H32.8081L37.4075 39.9455C37.4881 39.8649 37.4882 39.8649 37.5688 39.7844H39.2634L34.4219 43.8113ZM33.6957 39.7844H35.7936L31.0329 43.8113H29.3384L33.6957 39.7844ZM28.2087 54.5227C27.6438 54.5227 27.1597 55.0059 27.1597 55.5697V58.8717H21.6727V50.9791L27.9666 45.0999L34.7447 51.0596V58.9523H29.2577V55.6502C29.3383 55.0059 28.8542 54.5227 28.2087 54.5227ZM35.8743 52.0261C35.955 52.0261 36.0357 52.0261 36.1164 52.0261H40.3123H43.7014V58.8717H35.8743V52.0261ZM50.9636 51.9455C50.076 51.9455 49.2691 52.6703 49.2691 53.6368V58.9523H48.3814H44.831V44.6972L50.9636 39.9455L57.0961 44.6972V52.1871V59.0328H52.6581V53.7173C52.5774 52.6704 51.8512 51.9455 50.9636 51.9455ZM65.9721 58.9523H58.1451V52.6704H65.9721V58.9523ZM63.4707 51.5428C63.39 51.5428 63.39 51.5428 63.4707 51.5428L58.1451 47.3549V45.5026L65.73 51.5428H63.4707Z" fill="#002A50"/>
<path d="M64.2767 55.3264C64.2767 54.9237 63.9539 54.6016 63.5504 54.6016C63.147 54.6016 62.8242 54.9237 62.8242 55.3264V56.7761H64.3573V55.3264H64.2767Z" fill="#002A50"/>
<path d="M61.3743 55.3264C61.3743 54.9237 61.0516 54.6016 60.6481 54.6016C60.2447 54.6016 59.9219 54.9237 59.9219 55.3264V56.7761H61.455V55.3264H61.3743Z" fill="#002A50"/>
<path d="M41.1989 54.5195C40.7954 54.5195 40.4727 54.8417 40.4727 55.2444V56.694H42.0058V55.2444C42.0058 54.8417 41.683 54.5195 41.1989 54.5195Z" fill="#002A50"/>
<path d="M50.9645 46.7891C50.5611 46.7891 50.2383 47.1112 50.2383 47.5139V48.9636H51.7714V47.5139C51.6907 47.1112 51.368 46.7891 50.9645 46.7891Z" fill="#002A50"/>
<path d="M48.4645 46.7891C48.061 46.7891 47.7383 47.1112 47.7383 47.5139V48.9636H49.2714V47.5139C49.1907 47.1112 48.868 46.7891 48.4645 46.7891Z" fill="#002A50"/>
<path d="M54.1165 47.592C54.1165 47.1893 53.7938 46.8672 53.3903 46.8672C52.9868 46.8672 52.6641 47.1893 52.6641 47.592V49.0417H54.1972V47.592H54.1165Z" fill="#002A50"/>
<path d="M38.3747 54.5195C37.9712 54.5195 37.6484 54.8417 37.6484 55.2444V56.694H39.1816V55.2444C39.1009 54.8417 38.7781 54.5195 38.3747 54.5195Z" fill="#002A50"/>
<path d="M32.2337 55.3264C32.2337 54.9237 31.9109 54.6016 31.5075 54.6016C31.104 54.6016 30.7812 54.9237 30.7812 55.3264V56.7761H32.3144V55.3264H32.2337Z" fill="#002A50"/>
<path d="M24.6598 54.5195C24.2564 54.5195 23.9336 54.8417 23.9336 55.2444V56.694H25.4667V55.2444C25.386 54.8417 25.0633 54.5195 24.6598 54.5195Z" fill="#002A50"/>
<path d="M38.4668 28.0235C38.3861 27.9429 33.5446 22.1443 26.6859 25.4463C28.0576 23.9161 29.9942 24.3188 30.1556 24.3188C30.3976 24.3993 30.7204 24.1577 30.8011 23.9161C30.8818 23.6745 30.6397 23.3523 30.3977 23.2718C29.7521 23.1107 28.8645 23.1912 27.9769 23.4328C29.8328 21.8221 32.0115 22.0637 32.0921 22.0637C32.4149 22.1443 32.657 21.9027 32.657 21.661C32.7377 21.3389 32.4956 21.0973 32.2535 21.0973C32.2535 21.0973 30.4783 20.8557 28.6224 21.8221C30.9625 20.0503 33.7867 20.0503 33.9481 20.0503C34.2708 20.0503 34.5129 19.8087 34.5129 19.5671C34.5129 19.2449 34.2708 19.0033 34.0288 19.0033C31.2853 18.9228 26.3631 20.2919 24.9913 25.7684C23.6196 20.2919 18.6974 18.9228 15.9539 19.0033C15.6312 19.0033 15.4698 19.2449 15.4698 19.5671C15.4698 19.8892 15.7119 20.0503 16.0346 20.0503C16.196 20.0503 19.1009 20.0503 21.3602 21.8221C19.5044 20.8557 17.7291 21.0973 17.7291 21.1778C17.4064 21.2584 17.245 21.5 17.3257 21.7416C17.4064 22.0637 17.6485 22.2248 17.8905 22.1443C18.0519 22.1443 20.1499 21.8221 22.0865 23.5134C21.1989 23.1912 20.2306 23.1913 19.6657 23.3523C19.4237 23.4329 19.1816 23.6745 19.2623 23.9966C19.343 24.2382 19.5851 24.4798 19.9078 24.3993C19.9885 24.3993 22.3285 23.9966 23.7003 26.01C16.4381 21.7416 11.1932 28.0235 11.1125 28.104C10.9511 28.3456 10.9511 28.6678 11.1932 28.8289C11.2739 28.9094 11.4352 28.9094 11.5159 28.9094C11.6773 28.9094 11.8387 28.8288 11.9194 28.7483C12.0808 28.5872 14.2594 25.9295 17.7291 25.6074C15.3084 26.3322 14.0981 28.1845 14.0981 28.2651C13.9367 28.5067 14.0174 28.8289 14.2594 28.9899C14.3401 29.0705 14.4208 29.0705 14.5015 29.0705C14.6629 29.0705 14.8243 28.9899 14.905 28.8289C14.9857 28.6678 16.3574 26.5738 19.2623 26.4127C18.2133 26.896 17.5678 27.7013 17.1643 28.3456C17.0029 28.5872 17.0836 28.9094 17.3257 29.0705C17.4064 29.151 17.4871 29.151 17.5678 29.151C17.7291 29.151 17.8905 29.0705 18.0519 28.9094C18.1326 28.7483 19.8271 25.9295 23.4582 27.3792C16.2767 28.6678 16.5188 35.6745 16.5995 35.7551C16.5995 35.9967 16.8416 36.2383 17.0836 36.2383C17.4064 36.2383 17.5678 35.9967 17.5678 35.6745C17.5678 35.5134 17.4871 33.3389 18.7781 31.3255C18.2133 32.8557 18.4554 34.1443 18.4554 34.1443C18.5361 34.3859 18.6974 34.547 18.9395 34.547H19.0202C19.2623 34.4665 19.5044 34.2248 19.4237 33.9832C19.4237 33.9027 19.1009 32.1309 20.3919 30.5201C20.2306 31.245 20.2306 31.9698 20.3113 32.453C20.392 32.6946 20.5533 32.8557 20.7954 32.8557H20.8761C21.1182 32.7752 21.3602 32.5336 21.2796 32.2114C21.2796 32.1309 20.7147 29.3926 23.781 28.3456H23.8617C23.781 28.9899 23.6196 29.6342 23.6196 30.2785C23.6196 30.5201 23.6196 30.6812 23.781 30.8423C23.781 30.8423 23.9424 31.0034 24.1844 31.0034V47.2719C24.1844 47.594 24.4265 47.7551 24.6686 47.7551C24.9107 47.7551 25.1527 47.5135 25.1527 47.2719V31.0034C25.3141 30.9228 25.4755 30.8423 25.5562 30.8423C25.7176 30.6812 25.7176 30.4396 25.7176 30.2785C25.7176 29.7148 25.6369 29.2315 25.5562 28.6678C25.6369 28.5872 25.7176 28.4262 25.7176 28.3456V28.2651C25.7983 28.2651 25.879 28.2651 25.9596 28.2651C26.0403 28.2651 26.121 28.3456 26.2017 28.3456C29.268 29.3926 28.7031 32.0503 28.7031 32.2114C28.6224 32.453 28.7838 32.7752 29.1066 32.8557H29.1873C29.4294 32.8557 29.6714 32.6946 29.6714 32.453C29.7521 31.9698 29.8328 31.245 29.5907 30.5201C30.8818 32.1309 30.559 33.9027 30.559 33.9832C30.4783 34.2248 30.7204 34.547 30.9625 34.547H31.0432C31.2852 34.547 31.5273 34.3859 31.5273 34.1443C31.5273 34.1443 31.7694 32.8557 31.2046 31.3255C32.4956 33.2584 32.4149 35.5134 32.4149 35.6745C32.4149 35.9967 32.657 36.2383 32.8991 36.2383C33.1411 36.2383 33.3832 35.9967 33.3832 35.7551C33.3832 35.6745 33.6253 28.4262 26.121 27.3792C29.6714 26.0906 31.2852 28.9094 31.3659 28.9899C31.4466 29.151 31.608 29.2315 31.8501 29.2315C31.9308 29.2315 32.0115 29.2315 32.0921 29.151C32.3342 28.9899 32.4149 28.6678 32.2535 28.4262C31.9308 27.7819 31.2046 26.9765 30.1556 26.4933C33.0604 26.7349 34.4322 28.8289 34.5129 28.9094C34.5936 29.0705 34.755 29.151 34.9163 29.151C34.997 29.151 35.0777 29.151 35.1584 29.0705C35.4005 28.9094 35.4812 28.5872 35.3198 28.3456C35.3198 28.3456 34.1094 26.4933 31.6887 25.6879C35.1584 26.0906 37.4178 28.6678 37.4985 28.8289C37.5792 28.9899 37.7405 28.9899 37.9019 28.9899C37.9826 28.9899 38.144 28.9899 38.2247 28.9094C38.6281 28.5067 38.6281 28.1846 38.4668 28.0235Z" fill="#002A50"/>
</svg>
