<svg width="376" height="77" viewBox="0 0 376 77" fill="none" xmlns="http://www.w3.org/2000/svg">
<path d="M356.883 15.7909C353.316 6.53641 344.303 0 333.799 0H41.9518C31.3828 0 22.4348 6.53641 18.8686 15.7909L0 51.8383H375.816L356.883 15.7909Z" fill="#B57556"/>
<path d="M35.9922 51.8383H77.4253L96.4884 0H59.2051L35.9922 51.8383Z" fill="#EDEEF0"/>
<path d="M169.696 0H131.31L119.898 51.8383H163.471L169.696 0Z" fill="#EDEEF0"/>
<path d="M316.943 0H279.66L298.658 51.8383H340.156L316.943 0Z" fill="#EDEEF0"/>
<path d="M244.843 0H206.457L212.682 51.8383H256.255L244.843 0Z" fill="#EDEEF0"/>
<path d="M142.001 76.3715H141.353C129.487 76.3715 119.891 66.7934 119.891 54.9502V51.8438H163.463V54.9502C163.463 66.7934 153.867 76.3715 142.001 76.3715Z" fill="#D4D5D9"/>
<path d="M99.1435 76.3715H98.1709C86.6941 76.3715 77.4219 67.117 77.4219 55.6621V51.8438H119.892V55.6621C119.892 67.117 110.62 76.3715 99.1435 76.3715Z" fill="#AF7F6B"/>
<path d="M56.6709 76.3715C45.1941 76.3715 35.9219 67.117 35.9219 55.6621V51.8438H77.355V55.6621C77.4198 67.117 68.1476 76.3715 56.6709 76.3715Z" fill="#D4D5D9"/>
<path d="M17.9608 76.3715C8.04023 76.3715 0 68.3466 0 58.4449V51.8438H35.9865V58.3802C35.9865 68.3466 27.9463 76.3715 17.9608 76.3715Z" fill="#AF7F6B"/>
<path d="M234.466 76.3715C246.526 76.3715 256.253 66.6639 256.253 54.6266V51.8438H212.68V54.6266C212.68 66.6639 222.406 76.3715 234.466 76.3715Z" fill="#D4D5D9"/>
<path d="M277.453 76.3715C289.189 76.3715 298.656 66.9228 298.656 55.209V51.8438H256.25V55.209C256.25 66.9228 265.717 76.3715 277.453 76.3715Z" fill="#AF7F6B"/>
<path d="M319.211 76.3715H319.6C330.947 76.3715 340.154 67.1817 340.154 55.8562V51.8438H298.656V55.8562C298.656 67.1817 307.864 76.3715 319.211 76.3715Z" fill="#D4D5D9"/>
<path d="M357.984 76.3715C367.839 76.3715 375.815 68.4113 375.815 58.5743V51.8438H340.152V58.5743C340.152 68.4113 348.128 76.3715 357.984 76.3715Z" fill="#AF7F6B"/>
<path d="M188.039 76.3715C174.423 76.3715 163.465 65.3696 163.465 51.8438H212.679C212.679 65.3696 201.656 76.3715 188.039 76.3715Z" fill="#AF7F6B"/>
</svg>
