<svg width="81" height="81" viewBox="0 0 81 81" fill="none" xmlns="http://www.w3.org/2000/svg">
<path d="M40.249 80.6883C62.4779 80.6883 80.4981 62.7026 80.4981 40.516C80.4981 18.3295 62.4779 0.34375 40.249 0.34375C18.0201 0.34375 0 18.3295 0 40.516C0 62.7026 18.0201 80.6883 40.249 80.6883Z" fill="#BED3E5"/>
<path d="M60.4863 29.6671C60.4863 29.6671 60.4023 29.6671 60.4863 29.6671C60.4023 29.4972 60.4023 29.4972 60.3182 29.4123C60.3182 29.4123 60.3182 29.4123 60.2342 29.3273C60.1502 29.2424 60.0661 29.2424 59.9821 29.1574L54.688 26.7793C55.1081 26.0998 55.4443 25.3354 55.5283 24.486C55.6964 22.3627 54.2678 20.4941 52.0829 19.8996C50.4023 19.39 48.4695 19.8146 46.5367 21.0037C45.9485 21.3434 45.3602 21.8531 44.772 22.3627L40.8224 20.579C40.5703 20.4941 40.4022 20.4941 40.1501 20.579L36.2846 22.3627C34.5199 20.8338 32.5031 19.7297 30.4863 19.7297C29.9821 19.7297 29.4779 19.8146 28.9737 19.8996C26.7888 20.4941 25.3602 22.3627 25.5283 24.486C25.6123 25.3354 25.8644 26.0998 26.3686 26.7793L21.0745 29.1574C20.9905 29.1574 20.9064 29.2424 20.8224 29.3273C20.8224 29.3273 20.8224 29.3273 20.7384 29.4123C20.6543 29.4972 20.6543 29.4972 20.6543 29.5821V29.6671C20.6543 29.752 20.5703 29.8369 20.5703 29.9219V52.2597C20.5703 52.5995 20.7384 52.8543 21.0745 53.0241L40.2342 61.6026C40.3182 61.6026 40.4022 61.6875 40.5703 61.6875C40.7384 61.6875 40.7384 61.6875 40.9064 61.6026L60.0661 53.0241C60.4023 52.8543 60.5703 52.5995 60.5703 52.2597V29.9219C60.4863 29.8369 60.4863 29.752 60.4863 29.6671ZM39.73 39.0948V59.5641L31.4106 55.827V35.3577L39.73 39.0948ZM40.5703 37.6509L32.6712 34.0837L39.2258 31.1959C39.4779 31.1959 39.814 31.2808 40.0661 31.2808H40.4863H40.9064C41.1586 31.2808 41.4947 31.1959 41.7468 31.1959L48.3014 34.0837L40.5703 37.6509ZM50.4863 33.1494L45.1922 30.8561C46.3686 30.6863 47.5451 30.5164 48.7216 30.2616C49.814 30.0068 51.8308 29.3273 53.4275 28.1382L57.6291 30.0068L50.4863 33.1494ZM47.4611 22.4476C48.5535 21.7681 49.6459 21.3435 50.5703 21.3435C50.9065 21.3435 51.2426 21.4284 51.5787 21.5133C52.7552 21.8531 53.9317 22.8723 53.8476 24.4011C53.7636 26.4395 50.9064 27.8834 48.3854 28.5629C46.2006 29.0725 43.9317 29.3273 41.7468 29.4972C42.5031 27.3738 44.772 24.1463 47.4611 22.4476ZM40.5703 22.2777L43.5115 23.6367C42.251 24.9956 41.2426 26.5245 40.5703 27.9684C39.898 26.5245 38.8896 24.9956 37.6291 23.6367L40.5703 22.2777ZM29.4779 21.5133C29.814 21.4284 30.1501 21.3435 30.4863 21.3435C34.0997 21.3435 38.1333 26.2697 39.3938 29.4972C37.1249 29.3273 34.856 29.1575 32.7552 28.5629C30.1501 27.8834 27.377 26.4395 27.293 24.4011C27.209 22.8723 28.3014 21.8531 29.4779 21.5133ZM27.7132 28.0533C29.2258 29.2424 31.2426 29.9219 32.4191 30.1767C33.5955 30.4315 34.772 30.6863 35.9485 30.7712L30.6543 33.0645L23.5115 29.8369L27.7132 28.0533ZM22.251 31.2808L29.73 34.6782V55.1475L22.251 51.7501V31.2808ZM41.4107 39.0948L49.73 35.3577V55.827L41.4107 59.5641V39.0948ZM51.4107 55.1475V34.6782L58.8896 31.2808V51.7501L51.4107 55.1475Z" fill="#002A50"/>
</svg>
