<svg width="81" height="81" viewBox="0 0 81 81" fill="none" xmlns="http://www.w3.org/2000/svg">
<path d="M40.749 80.3446C62.9779 80.3446 80.9981 62.3588 80.9981 40.1723C80.9981 17.9857 62.9779 0 40.749 0C18.5201 0 0.5 17.9857 0.5 40.1723C0.5 62.3588 18.5201 80.3446 40.749 80.3446Z" fill="#BED3E5"/>
<path d="M64.9392 44.5297C64.6003 43.9377 64.0919 43.3456 63.6682 42.7536C64.0071 41.8233 63.7529 40.8084 63.0751 39.9627C62.9903 39.7935 62.8209 39.6244 62.6514 39.5398C62.3125 39.117 61.804 38.7787 61.2109 38.6095C60.7025 38.4404 60.1093 38.4404 59.5162 38.6095L58.5841 38.9478C58.2452 38.7787 57.9062 38.6095 57.4826 38.4404C57.9062 38.0175 58.4146 37.2564 58.4146 36.4106C58.4994 35.734 58.2452 35.142 57.7368 34.55C57.0589 33.8734 56.1268 33.4506 55.1947 33.4506L44.5181 33.8734C43.4166 33.8734 42.2303 34.55 42.2303 35.9032C42.2303 37.5947 43.3319 38.7787 44.2639 38.9478C45.196 40.2164 45.7044 41.8233 45.7044 43.5994C45.7044 44.5297 45.6197 45.46 45.3655 46.3903C45.2808 46.8131 44.8571 47.0669 44.4334 47.0669H34.0958C33.6721 46.8977 31.8926 44.7834 30.6216 42.5845C30.5369 42.4153 30.4522 41.485 32.4011 36.5798C34.011 32.3511 34.7736 28.799 34.6042 26.6001L36.0447 25.4161C36.2141 25.7544 36.4683 26.0081 36.8073 26.1773C36.892 26.1773 36.9767 26.2618 37.1462 26.2618C37.4004 26.2618 37.5699 26.1773 37.7394 26.0081C38.3325 25.5007 38.5867 24.3167 38.3325 23.3018C38.163 22.6252 37.8241 22.1178 37.4004 22.0332C37.0615 21.9486 36.7225 22.0332 36.4683 22.2023C35.8752 22.6252 35.621 23.6401 35.7905 24.655L34.4347 25.7544V25.6698C33.9263 23.9784 32.4011 22.2869 30.0285 22.2869C29.6895 22.2869 29.4354 22.2869 29.0964 22.3715C28.0796 22.5406 26.978 24.1475 26.978 26.2618C26.978 28.2916 27.7407 29.8985 28.8422 30.0676C28.9269 30.0676 28.9269 30.0676 29.0117 30.0676C29.0117 30.0676 29.7743 30.0676 30.1132 29.9831C30.4522 29.8985 30.8758 29.8139 31.2148 29.7294C30.1132 32.182 27.0628 39.2015 25.8765 42.3308C25.7918 42.4999 25.7917 42.5845 25.7917 42.7536C24.0123 42.4153 22.2329 42.5845 20.6229 43.3456C19.013 44.0222 17.5725 45.2063 16.6404 46.644C16.4709 46.8977 16.4709 47.236 16.5557 47.4897C16.6404 47.7435 16.8946 47.9971 17.1488 47.9971L18.9282 48.42C17.8267 50.0269 17.6572 52.0567 18.2504 53.8327C18.9282 55.6088 20.3687 57.0465 22.2329 57.6385C24.0971 58.2305 26.1307 57.8077 27.6559 56.7082C29.1811 55.5242 30.1132 53.7481 30.1132 51.8029C30.1132 51.6338 30.1132 51.4647 30.1132 51.2955L31.8079 51.7184C32.0621 51.803 32.4011 51.7184 32.5705 51.5492C32.8247 51.3801 32.9095 51.1264 32.9095 50.8727H50.7038C50.4496 52.6487 50.958 54.4247 52.0595 55.7779C53.2458 57.1311 54.9405 57.8922 56.7199 57.8922C58.4994 57.8922 60.1941 57.1311 61.3804 55.7779C62.5666 54.4247 63.075 52.5641 62.7361 50.8727H65.1934C65.5324 50.8727 65.7866 50.7035 66.0408 50.5343C66.295 50.2806 66.3797 50.0269 66.3797 49.6886C66.4645 47.9971 65.8713 46.1366 64.9392 44.5297ZM36.9767 22.9635C36.9767 22.9635 37.0615 22.8789 37.1462 22.8789C37.3157 22.9635 37.4852 23.1326 37.5699 23.6401C37.7394 24.4012 37.5699 25.247 37.2309 25.5007C37.1462 25.5853 37.0615 25.5852 37.0615 25.5852C36.892 25.5007 36.7225 25.3315 36.6378 24.8241C36.4683 24.0629 36.6378 23.2172 36.9767 22.9635ZM59.7704 39.3707C60.1941 39.2861 60.6177 39.2861 60.9567 39.3707C61.3804 39.4553 61.7193 39.709 61.9735 40.0473C62.143 40.2164 62.2277 40.3856 62.3972 40.4701C62.8208 40.9776 62.9903 41.485 62.9903 42.077C61.9735 41.0621 60.7872 40.2164 59.5162 39.5398L59.7704 39.3707ZM43.0777 35.9878C43.0777 34.9729 44.0097 34.7192 44.5181 34.7192L55.1947 34.2963C55.9573 34.2963 56.6352 34.55 57.1436 35.142C57.4826 35.5649 57.652 35.9878 57.652 36.4106C57.5673 37.2564 56.8894 37.933 56.6352 38.1867H44.5181C44.0097 38.2712 43.0777 37.4255 43.0777 35.9878ZM27.8254 26.431C27.8254 25.0778 28.4185 23.9784 28.9269 23.5555C29.0964 25.5007 29.0964 27.4459 28.8422 29.391C28.2491 28.9682 27.8254 27.8687 27.8254 26.431ZM29.3506 52.0567C29.3506 53.7481 28.5033 55.355 27.1475 56.3699C25.7918 57.3848 24.0123 57.6385 22.3176 57.1311C20.7077 56.6236 19.4366 55.355 18.9282 53.6636C18.4198 52.0567 18.674 50.2806 19.6908 48.9275L22.9108 49.7732C22.2329 50.0269 21.7245 50.6189 21.4703 51.2955C21.2161 51.9721 21.3008 52.7333 21.6397 53.3253C21.9787 53.9173 22.5718 54.4247 23.2497 54.5939C23.9276 54.763 24.6902 54.6785 25.2833 54.2556C25.8765 53.8327 26.3002 53.2407 26.3849 52.5641C26.4696 51.8875 26.3002 51.1264 25.8765 50.5343L29.0964 51.3801C29.3506 51.5492 29.3506 51.803 29.3506 52.0567ZM25.7917 52.0567C25.7917 52.5641 25.6223 52.987 25.2833 53.3253C24.9444 53.6636 24.5207 53.8327 24.0123 53.8327C23.5039 53.8327 23.0802 53.6636 22.7413 53.3253C22.4024 52.987 22.2329 52.5641 22.2329 52.0567C22.2329 51.5492 22.4024 51.1264 22.7413 50.7881C23.0802 50.4498 23.5039 50.2806 24.0123 50.2806C24.5207 50.2806 24.9444 50.4498 25.2833 50.7881C25.6223 51.1264 25.7917 51.6338 25.7917 52.0567ZM32.1469 51.2109H32.0621L29.7743 50.6189L19.6908 48.0817L17.3183 47.4897C17.3183 47.4897 17.2335 47.4897 17.2335 47.4052V47.3206C18.1656 45.9674 19.4366 44.8679 20.9619 44.1914C22.4871 43.5993 24.1818 43.4302 25.7917 43.8531C25.8765 44.0222 25.9612 44.1068 26.046 44.1914C27.7407 45.9674 29.4353 48.5892 30.2827 49.9423C30.7064 50.5344 31.2995 50.9572 32.0621 51.0418C32.1469 51.1264 32.1469 51.1264 32.1469 51.2109C32.2316 51.1264 32.1469 51.1264 32.1469 51.2109ZM62.143 52.0567C62.143 53.579 61.5498 55.0167 60.3635 55.9471C59.262 56.9619 57.7368 57.4693 56.2963 57.3002C54.771 57.1311 53.4153 56.3699 52.5679 55.1859C51.6359 54.0019 51.2969 52.4795 51.5511 51.0418H54.4321C54.0932 51.8029 54.1779 52.7333 54.6863 53.4099C55.1947 54.0864 55.9573 54.5093 56.8047 54.5093C57.652 54.5093 58.4146 54.0864 58.923 53.4099C59.4315 52.7333 59.5162 51.8029 59.1773 51.0418H62.0582C62.0582 51.4647 62.143 51.7184 62.143 52.0567ZM58.2452 51.1264C58.4994 51.4647 58.5841 51.8875 58.4994 52.3104C58.4146 52.7333 58.2452 53.1561 57.9062 53.4099C57.5673 53.6636 57.1436 53.8327 56.7199 53.8327C56.2963 53.8327 55.8726 53.6636 55.5337 53.4099C55.1947 53.1561 55.0253 52.7333 54.9405 52.3104C54.8558 51.8875 54.9405 51.4647 55.1947 51.1264H58.2452ZM65.6171 50.1961C65.5324 50.2806 65.4476 50.2806 65.3629 50.2806H32.5705C31.9774 50.2806 31.469 50.0269 31.13 49.5195C30.2827 48.0817 28.5033 45.46 26.8086 43.6839C26.6391 43.4302 26.5544 43.1765 26.6391 42.9228C28.0796 39.0324 32.4011 29.4756 32.4011 29.4756C32.4858 29.3065 32.4011 29.1373 32.3163 29.0527C32.2316 28.9682 32.0621 28.8836 31.8926 28.9682C31.8079 28.9682 31.7232 29.0527 31.6385 29.0527C31.13 29.3065 30.5369 29.391 30.0285 29.5602C29.859 29.5602 29.7743 29.5602 29.6048 29.6448C29.859 27.5304 29.9438 25.5007 29.6896 23.3864C29.859 23.3864 29.9438 23.3864 30.1132 23.3864C31.9774 23.3864 33.3332 24.8241 33.7568 26.1773C34.35 28.0379 33.5874 31.8437 31.8079 36.5798C29.859 41.6542 29.859 42.7536 30.1132 43.2611C30.7911 44.3605 31.5537 45.46 32.3163 46.4748C33.6721 48.1663 34.011 48.1663 34.2652 48.1663H44.6029C45.0265 48.1663 45.3655 47.9972 45.7044 47.828C46.0434 47.5743 46.2128 47.236 46.2976 46.8977C46.5518 45.9674 46.6365 44.9525 46.6365 43.9376C46.6365 42.1616 46.2128 40.6393 45.3655 39.2861H56.8047C59.6009 40.4701 61.5498 41.9079 62.9056 43.3456L62.9903 43.4302C65.3629 46.052 65.7866 48.7583 65.7866 50.1961C65.7866 50.0269 65.7018 50.1115 65.6171 50.1961Z" fill="#002A50"/>
<path d="M32.1469 51.2109H32.0621L29.7743 50.6189L19.6908 48.0817L17.3183 47.4897C17.3183 47.4897 17.2335 47.4897 17.2335 47.4052V47.3206C18.1656 45.9674 19.4366 44.8679 20.9619 44.1914C22.4871 43.5993 24.1818 43.4302 25.7917 43.8531C25.8765 44.0222 25.9612 44.1068 26.046 44.1914C27.7406 45.9674 29.4353 48.5892 30.2827 49.9423C30.7064 50.5344 31.2995 50.9572 32.0621 51.0418C32.1469 51.1264 32.1469 51.1264 32.1469 51.2109ZM32.1469 51.2109C32.2316 51.1264 32.1469 51.1264 32.1469 51.2109ZM64.9392 44.5297C64.6003 43.9377 64.0919 43.3456 63.6682 42.7536C64.0071 41.8233 63.7529 40.8084 63.0751 39.9627C62.9903 39.7935 62.8209 39.6244 62.6514 39.5398C62.3125 39.117 61.804 38.7787 61.2109 38.6095C60.7025 38.4404 60.1093 38.4404 59.5162 38.6095L58.5841 38.9478C58.2452 38.7787 57.9062 38.6095 57.4826 38.4404C57.9062 38.0175 58.4146 37.2564 58.4146 36.4106C58.4994 35.734 58.2452 35.142 57.7368 34.55C57.0589 33.8734 56.1268 33.4506 55.1947 33.4506L44.5181 33.8734C43.4166 33.8734 42.2303 34.55 42.2303 35.9032C42.2303 37.5947 43.3318 38.7787 44.2639 38.9478C45.196 40.2164 45.7044 41.8233 45.7044 43.5994C45.7044 44.5297 45.6197 45.46 45.3655 46.3903C45.2808 46.8131 44.8571 47.0669 44.4334 47.0669H34.0958C33.6721 46.8977 31.8926 44.7834 30.6216 42.5845C30.5369 42.4153 30.4522 41.485 32.4011 36.5798C34.011 32.3511 34.7736 28.799 34.6042 26.6001L36.0447 25.4161C36.2141 25.7544 36.4683 26.0081 36.8073 26.1773C36.892 26.1773 36.9767 26.2618 37.1462 26.2618C37.4004 26.2618 37.5699 26.1773 37.7394 26.0081C38.3325 25.5007 38.5867 24.3167 38.3325 23.3018C38.163 22.6252 37.8241 22.1178 37.4004 22.0332C37.0615 21.9486 36.7225 22.0332 36.4683 22.2023C35.8752 22.6252 35.621 23.6401 35.7905 24.655L34.4347 25.7544V25.6698C33.9263 23.9784 32.4011 22.2869 30.0285 22.2869C29.6895 22.2869 29.4354 22.2869 29.0964 22.3715C28.0796 22.5406 26.978 24.1475 26.978 26.2618C26.978 28.2916 27.7407 29.8985 28.8422 30.0676C28.9269 30.0676 28.9269 30.0676 29.0117 30.0676C29.0117 30.0676 29.7743 30.0676 30.1132 29.9831C30.4522 29.8985 30.8758 29.8139 31.2148 29.7294C30.1132 32.182 27.0628 39.2015 25.8765 42.3308C25.7918 42.4999 25.7917 42.5845 25.7917 42.7536C24.0123 42.4153 22.2329 42.5845 20.6229 43.3456C19.013 44.0222 17.5725 45.2063 16.6404 46.644C16.4709 46.8977 16.4709 47.236 16.5557 47.4897C16.6404 47.7434 16.8946 47.9971 17.1488 47.9971L18.9282 48.42C17.8267 50.0269 17.6572 52.0567 18.2504 53.8327C18.9282 55.6088 20.3687 57.0465 22.2329 57.6385C24.0971 58.2305 26.1307 57.8077 27.6559 56.7082C29.1811 55.5242 30.1132 53.7481 30.1132 51.8029C30.1132 51.6338 30.1132 51.4647 30.1132 51.2955L31.8079 51.7184C32.0621 51.803 32.4011 51.7184 32.5705 51.5492C32.8247 51.3801 32.9095 51.1264 32.9095 50.8727H50.7038C50.4496 52.6487 50.958 54.4247 52.0595 55.7779C53.2458 57.1311 54.9405 57.8922 56.7199 57.8922C58.4994 57.8922 60.1941 57.1311 61.3804 55.7779C62.5666 54.4247 63.075 52.5641 62.7361 50.8727H65.1934C65.5324 50.8727 65.7866 50.7035 66.0408 50.5343C66.295 50.2806 66.3797 50.0269 66.3797 49.6886C66.4644 47.9971 65.8713 46.1366 64.9392 44.5297ZM36.9767 22.9635C36.9767 22.9635 37.0615 22.8789 37.1462 22.8789C37.3157 22.9635 37.4852 23.1326 37.5699 23.6401C37.7394 24.4012 37.5699 25.247 37.2309 25.5007C37.1462 25.5853 37.0615 25.5852 37.0615 25.5852C36.892 25.5007 36.7225 25.3315 36.6378 24.8241C36.4683 24.0629 36.6378 23.2172 36.9767 22.9635ZM59.7704 39.3707C60.1941 39.2861 60.6177 39.2861 60.9567 39.3707C61.3804 39.4553 61.7193 39.709 61.9735 40.0473C62.143 40.2164 62.2277 40.3856 62.3972 40.4701C62.8208 40.9776 62.9903 41.485 62.9903 42.077C61.9735 41.0621 60.7872 40.2164 59.5162 39.5398L59.7704 39.3707ZM43.0777 35.9878C43.0777 34.9729 44.0097 34.7192 44.5181 34.7192L55.1947 34.2963C55.9573 34.2963 56.6352 34.55 57.1436 35.142C57.4826 35.5649 57.652 35.9878 57.652 36.4106C57.5673 37.2564 56.8894 37.933 56.6352 38.1867H44.5181C44.0097 38.2712 43.0777 37.4255 43.0777 35.9878ZM27.8254 26.431C27.8254 25.0778 28.4185 23.9784 28.9269 23.5555C29.0964 25.5007 29.0964 27.4459 28.8422 29.391C28.2491 28.9682 27.8254 27.8687 27.8254 26.431ZM29.3506 52.0567C29.3506 53.7481 28.5033 55.355 27.1475 56.3699C25.7918 57.3848 24.0123 57.6385 22.3176 57.1311C20.7077 56.6236 19.4366 55.355 18.9282 53.6636C18.4198 52.0567 18.674 50.2806 19.6908 48.9275L22.9108 49.7732C22.2329 50.0269 21.7245 50.6189 21.4703 51.2955C21.2161 51.9721 21.3008 52.7333 21.6397 53.3253C21.9787 53.9173 22.5718 54.4247 23.2497 54.5939C23.9276 54.763 24.6902 54.6785 25.2833 54.2556C25.8765 53.8327 26.3002 53.2407 26.3849 52.5641C26.4696 51.8875 26.3002 51.1264 25.8765 50.5343L29.0964 51.3801C29.3506 51.5492 29.3506 51.803 29.3506 52.0567ZM25.7917 52.0567C25.7917 52.5641 25.6223 52.987 25.2833 53.3253C24.9444 53.6636 24.5207 53.8327 24.0123 53.8327C23.5039 53.8327 23.0802 53.6636 22.7413 53.3253C22.4024 52.987 22.2329 52.5641 22.2329 52.0567C22.2329 51.5492 22.4024 51.1264 22.7413 50.7881C23.0802 50.4498 23.5039 50.2806 24.0123 50.2806C24.5207 50.2806 24.9444 50.4498 25.2833 50.7881C25.6223 51.1264 25.7917 51.6338 25.7917 52.0567ZM62.143 52.0567C62.143 53.579 61.5498 55.0167 60.3635 55.9471C59.262 56.9619 57.7368 57.4694 56.2963 57.3002C54.771 57.1311 53.4153 56.3699 52.5679 55.1859C51.6359 54.0018 51.2969 52.4795 51.5511 51.0418H54.4321C54.0932 51.8029 54.1779 52.7333 54.6863 53.4099C55.1947 54.0864 55.9573 54.5093 56.8047 54.5093C57.652 54.5093 58.4146 54.0864 58.9231 53.4099C59.4315 52.7333 59.5162 51.8029 59.1773 51.0418H62.0582C62.0582 51.4647 62.143 51.7184 62.143 52.0567ZM58.2452 51.1264C58.4994 51.4647 58.5841 51.8875 58.4994 52.3104C58.4146 52.7333 58.2452 53.1561 57.9062 53.4099C57.5673 53.6636 57.1436 53.8327 56.7199 53.8327C56.2963 53.8327 55.8726 53.6636 55.5337 53.4099C55.1947 53.1561 55.0253 52.7333 54.9405 52.3104C54.8558 51.8875 54.9405 51.4647 55.1947 51.1264H58.2452ZM65.6171 50.1961C65.5324 50.2806 65.4476 50.2806 65.3629 50.2806H32.5705C31.9774 50.2806 31.469 50.0269 31.13 49.5195C30.2827 48.0817 28.5033 45.46 26.8086 43.6839C26.6391 43.4302 26.5544 43.1765 26.6391 42.9228C28.0796 39.0324 32.4011 29.4756 32.4011 29.4756C32.4858 29.3065 32.4011 29.1373 32.3163 29.0527C32.2316 28.9682 32.0621 28.8836 31.8926 28.9682C31.8079 28.9682 31.7232 29.0527 31.6385 29.0527C31.13 29.3065 30.5369 29.391 30.0285 29.5602C29.859 29.5602 29.7743 29.5602 29.6048 29.6448C29.859 27.5304 29.9438 25.5007 29.6896 23.3864C29.859 23.3864 29.9438 23.3864 30.1132 23.3864C31.9774 23.3864 33.3332 24.8241 33.7568 26.1773C34.35 28.0379 33.5874 31.8437 31.8079 36.5798C29.859 41.6542 29.859 42.7536 30.1132 43.2611C30.7911 44.3605 31.5537 45.46 32.3163 46.4748C33.6721 48.1663 34.011 48.1663 34.2652 48.1663H44.6029C45.0265 48.1663 45.3655 47.9972 45.7044 47.828C46.0434 47.5743 46.2128 47.236 46.2976 46.8977C46.5518 45.9674 46.6365 44.9525 46.6365 43.9376C46.6365 42.1616 46.2128 40.6393 45.3655 39.2861H56.8047C59.6009 40.4701 61.5498 41.9079 62.9056 43.3456L62.9903 43.4302C65.3629 46.052 65.7866 48.7583 65.7866 50.1961C65.7866 50.0269 65.7018 50.1115 65.6171 50.1961Z" stroke="#002A50" stroke-width="0.513029" stroke-miterlimit="10"/>
<path d="M56.2917 41.0625H50.0213C49.7671 41.0625 49.5977 41.2316 49.5977 41.4854C49.5977 41.7391 49.7671 41.9082 50.0213 41.9082H56.2917C56.5459 41.9082 56.7154 41.7391 56.7154 41.4854C56.6306 41.2316 56.4612 41.0625 56.2917 41.0625Z" fill="#002A50" stroke="#002A50" stroke-width="0.513029" stroke-miterlimit="10"/>
<path d="M56.2917 43.0078H50.0213C49.7671 43.0078 49.5977 43.177 49.5977 43.4307C49.5977 43.6844 49.7671 43.8535 50.0213 43.8535H56.2917C56.5459 43.8535 56.7154 43.6844 56.7154 43.4307C56.7154 43.177 56.4612 43.0078 56.2917 43.0078Z" fill="#002A50" stroke="#002A50" stroke-width="0.513029" stroke-miterlimit="10"/>
<path d="M17.1445 22.543L22.3134 25.1647" stroke="#002A50" stroke-width="1.11608" stroke-miterlimit="10" stroke-linecap="round" stroke-linejoin="round"/>
<path d="M17.1445 30.1491L22.3134 27.5273" stroke="#002A50" stroke-width="1.11608" stroke-miterlimit="10" stroke-linecap="round" stroke-linejoin="round"/>
</svg>
