<svg width="81" height="81" viewBox="0 0 81 81" fill="none" xmlns="http://www.w3.org/2000/svg">
<path d="M40.749 80.6883C62.9779 80.6883 80.9981 62.7026 80.9981 40.516C80.9981 18.3295 62.9779 0.34375 40.749 0.34375C18.5201 0.34375 0.5 18.3295 0.5 40.516C0.5 62.7026 18.5201 80.6883 40.749 80.6883Z" fill="#BED3E5"/>
<path d="M58.408 51.5692H50.7931L46.0017 43.371L46.1728 43.1148C46.8573 42.2608 47.4562 41.4922 47.4562 40.7236C47.4562 40.2112 47.3706 38.4179 47.2851 37.9909L46.8573 34.7458C46.7717 34.3188 46.7717 33.9772 46.7717 33.5502V29.8781C46.7717 28.7679 46.2583 27.7431 45.4027 27.0599C46.515 26.3768 47.2851 25.1812 47.4562 23.9002C47.6273 22.6193 47.1995 21.2529 46.2583 20.3135C45.3172 19.3741 44.0338 18.8617 42.6648 19.0325C41.3814 19.2033 40.1835 19.8865 39.4135 20.9967C38.729 22.1069 38.5578 23.4732 38.9856 24.7542C39.4135 26.0352 40.3546 26.9746 41.638 27.4016C40.5258 28.5971 39.7557 30.0489 39.2423 31.6715L38.3012 30.1343C38.13 29.7927 37.6167 29.6219 37.2744 29.8781C36.9322 30.0489 36.8466 30.4759 37.0178 30.8175L38.8145 33.8918C38.8145 34.2334 38.729 34.6604 38.729 35.002V36.3683C38.729 38.4179 39.2423 40.382 40.3546 42.09L40.5258 42.3462C40.7824 42.7732 40.9536 43.2856 40.9536 43.7979V48.8364C40.9536 49.4342 40.6969 49.9466 40.3546 50.3736L39.2423 51.4838H34.1087C31.114 51.4838 28.0338 50.9714 25.2103 50.032L22.8146 49.2634C22.1301 49.0926 21.3601 49.2634 20.7611 49.6904C20.2478 50.2028 19.9911 50.886 20.0767 51.6546C20.2478 52.3378 20.7611 52.9355 21.4456 53.1917L24.7825 54.3019C26.3226 54.8143 27.7772 55.1559 29.4028 55.4121C28.3761 56.0953 27.0927 56.4369 25.8948 56.3515C24.4403 56.3515 23.0713 55.9245 21.959 55.1559C20.59 54.2165 18.9644 53.7041 17.2531 53.7895V55.2413C18.7077 55.2413 20.0767 55.6683 21.189 56.4369C22.5579 57.3762 24.2692 57.8886 25.8948 57.8032C27.606 57.8032 29.2317 57.3762 30.6007 56.4369C31.7985 55.5829 33.1675 55.2413 34.5365 55.2413C35.991 55.2413 37.36 55.6683 38.4723 56.4369C39.8413 57.3762 41.4669 57.8886 43.1782 57.8032C44.8894 57.8032 46.515 57.3762 47.884 56.4369C48.2263 56.1807 48.6541 56.0099 48.9963 55.8391H50.7075L51.392 58.1448C49.8519 58.2302 48.3118 58.6572 47.0284 59.5112C45.8306 60.3651 44.4616 60.7068 43.007 60.7068C41.5525 60.7068 40.1835 60.2797 39.0712 59.5112C37.7022 58.5718 36.0766 58.0594 34.3654 58.1448C32.6541 58.1448 31.0285 58.5718 29.6595 59.5112C28.4616 60.3651 27.0927 60.7068 25.7237 60.7068C24.2691 60.7068 22.9002 60.2797 21.7879 59.5112C20.4189 58.5718 18.7933 58.0594 17.082 58.1448V59.5966C18.5366 59.5966 19.9055 60.0236 21.0178 60.7921C22.3868 61.7315 24.098 62.2439 25.7237 62.1585C27.4349 62.1585 29.0606 61.7315 30.4295 60.7921C31.6274 59.9382 32.9964 59.5966 34.3654 59.5966C35.8199 59.5966 37.1889 60.0236 38.3012 60.7921C39.6701 61.7315 41.2958 62.2439 43.007 62.1585C44.7183 62.1585 46.3439 61.7315 47.7129 60.7921C48.9107 59.9382 50.3653 59.5112 51.8198 59.5966C52.3332 60.7921 53.2744 61.6461 54.4722 62.0731C55.6701 62.5001 56.9535 62.4147 58.0658 61.8169C59.1781 61.2191 59.9481 60.1944 60.2904 58.9134C60.5471 57.7178 60.3759 56.4368 59.6059 55.3267C60.1192 54.8997 60.3759 54.3019 60.3759 53.7041V53.5333C60.3759 53.3625 60.3759 53.2771 60.3759 53.1063C60.2048 52.1669 59.3492 51.5692 58.408 51.5692ZM59.0925 53.6187V53.7895C59.0925 54.0457 58.9214 54.2165 58.7503 54.3873C58.3225 54.0457 57.8946 53.8749 57.3813 53.7041L55.2423 53.0209H58.4936C58.7503 53.0209 59.0925 53.2771 59.0925 53.6187ZM49.0819 51.5692H45.2316V44.9935L49.0819 51.5692ZM40.1835 23.3024C40.1835 22.5339 40.5258 21.7653 41.0391 21.2529C41.5525 20.7405 42.3225 20.3989 43.0926 20.3989C43.8626 20.3989 44.6327 20.7405 45.1461 21.2529C45.6594 21.7653 46.0017 22.5339 46.0017 23.3024C46.0017 24.071 45.6594 24.8396 45.1461 25.352C44.6327 25.8644 43.8626 26.206 43.0926 26.206C42.3225 26.206 41.5525 25.8644 41.0391 25.352C40.5258 24.8396 40.1835 24.071 40.1835 23.3024ZM43.0926 27.9993L43.3493 27.7431C43.8626 27.8285 44.376 28.0847 44.7183 28.4263C45.0605 28.8533 45.2316 29.3657 45.2316 29.8781V33.5502C45.2316 34.0626 45.3172 34.4896 45.4027 35.002L45.8305 38.2471C45.9161 38.5033 45.9161 39.7842 45.9161 40.809C45.745 41.3214 45.4883 41.7484 45.1461 42.09L43.007 38.5033V32.867C43.007 32.44 42.6648 32.1838 42.3226 32.1838C41.8947 32.1838 41.5525 32.5254 41.5525 32.9524V36.0267L40.1835 33.721C40.6113 31.4153 41.6381 29.4511 43.0926 27.9993ZM41.8092 41.663L41.638 41.4068C40.6969 39.8696 40.1835 38.0763 40.1835 36.2829L44.2904 43.2856C44.0338 43.6271 43.8626 44.0542 43.8626 44.4811V51.5692H41.2958L41.3814 51.4838C42.0659 50.8006 42.4081 49.8612 42.4081 48.9218V43.8833C42.4081 43.1148 42.1514 42.3462 41.8092 41.663ZM43.0926 56.4369C42.1514 56.4369 41.1247 56.2661 40.2691 55.8391H46.0017C45.0605 56.3514 44.1193 56.5223 43.0926 56.4369ZM37.5311 54.4727C36.5044 54.0457 35.4776 53.8749 34.3654 53.8749C33.4242 53.8749 32.3975 54.0457 31.4563 54.3019C29.2317 54.1311 27.0927 53.6187 25.0392 52.9355L21.7023 51.8253C21.4456 51.74 21.2745 51.4838 21.2745 51.2276C21.2745 51.0568 21.3601 50.8006 21.5312 50.7152C21.7023 50.6298 21.959 50.5444 22.1301 50.6298L24.5258 51.3984C27.5205 52.4231 30.6862 52.9355 33.9375 52.9355H49.8519L50.2797 54.3873L37.5311 54.4727ZM56.0123 60.9629C55.3278 60.9629 54.7289 60.7921 54.2155 60.3651C53.7022 60.0236 53.2743 59.4258 53.1032 58.828L51.392 53.3625L56.8679 55.0705C57.8091 55.3267 58.4936 56.0952 58.8358 57.0346C59.1781 57.974 59.007 58.9988 58.408 59.7674C57.8947 60.536 57.0391 60.9629 56.0123 60.9629Z" fill="#002A50"/>
<path d="M20.6791 29.8777H33.171C33.4277 29.8777 33.6844 29.7069 33.77 29.5361C34.6256 28.0843 34.7111 26.2056 33.8555 24.6684C33.0855 23.1312 31.5454 22.1064 29.8342 21.9357C29.4064 20.7401 28.4652 19.7153 27.1818 19.2883C25.9839 18.8613 24.6149 18.9467 23.5026 19.6299C22.3903 20.3131 21.6203 21.4233 21.4492 22.7043C21.1925 22.6189 20.9358 22.6189 20.6791 22.6189C19.3957 22.6189 18.1979 23.302 17.5134 24.4122C16.8289 25.5224 16.8289 26.8887 17.5134 27.9989C18.1123 29.1945 19.3101 29.8777 20.6791 29.8777ZM20.6791 24.0706C21.1069 24.0706 21.4492 24.156 21.7914 24.4122C22.0481 24.583 22.3048 24.583 22.5615 24.4122C22.8181 24.2414 22.9037 23.9852 22.9037 23.729V23.6436C22.9037 23.5582 22.9037 23.4728 22.9037 23.3874C22.9037 22.4481 23.4171 21.5087 24.1871 20.9963C24.9572 20.4839 25.9839 20.3985 26.9251 20.7401C27.7807 21.0817 28.4652 21.9357 28.6363 22.875C28.7219 23.2166 28.9785 23.4728 29.3208 23.4728H29.4064C30.6042 23.4728 31.8021 24.0706 32.401 25.0954C32.9999 26.1202 33.171 27.4011 32.6577 28.5113H20.5935C19.8235 28.5113 19.139 28.0843 18.7112 27.4011C18.2834 26.718 18.2834 25.864 18.7112 25.2662C19.139 24.4976 19.8235 24.0706 20.6791 24.0706Z" fill="#002A50"/>
<path d="M50.9688 28.4258H58.1559" stroke="#002A50" stroke-width="1.41664" stroke-miterlimit="10" stroke-linecap="round" stroke-linejoin="round"/>
<path d="M53.1016 31.5H58.3208" stroke="#002A50" stroke-width="1.41664" stroke-miterlimit="10" stroke-linecap="round" stroke-linejoin="round"/>
<path d="M60.1211 31.5H61.5756" stroke="#002A50" stroke-width="1.41664" stroke-miterlimit="10" stroke-linecap="round" stroke-linejoin="round"/>
<path d="M60.1211 28.4258H61.5756" stroke="#002A50" stroke-width="1.41664" stroke-miterlimit="10" stroke-linecap="round" stroke-linejoin="round"/>
<path d="M63.5469 31.5H65.0014" stroke="#002A50" stroke-width="1.41664" stroke-miterlimit="10" stroke-linecap="round" stroke-linejoin="round"/>
</svg>
