<svg width="16" height="15" viewBox="0 0 16 15" fill="none" xmlns="http://www.w3.org/2000/svg">
<path d="M8.49547 0.673879L10.2531 4.25877C10.3295 4.4876 10.5588 4.64015 10.7881 4.64015L14.7619 5.25036C15.3733 5.32663 15.6026 6.08936 15.144 6.47073L12.2401 9.2929C12.0872 9.44545 12.0108 9.67427 12.0108 9.90309L12.6986 13.8694C12.775 14.4796 12.1636 14.9372 11.6287 14.6321L8.03694 12.8015C7.80768 12.7253 7.57842 12.7253 7.34916 12.8015L3.7574 14.6321C3.22245 14.9372 2.61109 14.4796 2.68752 13.8694L3.37529 9.90309C3.45171 9.67427 3.3753 9.44545 3.14604 9.2929L0.242067 6.47073C-0.216455 6.08936 0.0128058 5.32663 0.624168 5.25036L4.59802 4.64015C4.82728 4.64015 5.05654 4.4876 5.13296 4.25877L6.89063 0.673879C7.502 0.139957 8.2662 0.139957 8.49547 0.673879Z" fill="#DFC960"/>
</svg>
